HIERARCHY
ROOT Hips
{
	OFFSET 0.000000 88.474243 0.000000
	CHANNELS 6 Xposition Yposition Zposition Zrotation Yrotation Xrotation 
	JOINT Hips_Spine
	{
		OFFSET 0.000000 0.000000 0.000000
		CHANNELS 3 Zrotation Yrotation Xrotation
		JOINT Spine
		{
			OFFSET 0.005100 8.711998 -0.691000
			CHANNELS 3 Zrotation Yrotation Xrotation
			JOINT Spine1
			{
				OFFSET -0.009200 8.660301 -1.275000
				CHANNELS 3 Zrotation Yrotation Xrotation
				JOINT Spine2
				{
					OFFSET 0.006300 9.852501 -1.857000
					CHANNELS 3 Zrotation Yrotation Xrotation
					JOINT Spine2_Neck
					{
						OFFSET 0.000000 0.000000 0.000000
						CHANNELS 3 Zrotation Yrotation Xrotation
						JOINT Neck
						{
							OFFSET 0.016300 11.420799 -0.263300
							CHANNELS 3 Zrotation Yrotation Xrotation
							End Site #name: Head
							{
								OFFSET -0.019200 9.262405 2.362500
							}
						}
					}
					JOINT Spine2_LeftShoulder
					{
						OFFSET 0.000000 0.000000 0.000000
						CHANNELS 3 Zrotation Yrotation Xrotation
						JOINT LeftShoulder
						{
							OFFSET 5.616900 6.732201 -0.345700
							CHANNELS 3 Zrotation Yrotation Xrotation
							JOINT LeftArm
							{
								OFFSET 10.664888 -0.183372 -2.440700
								CHANNELS 3 Zrotation Yrotation Xrotation
								JOINT LeftForeArm
								{
									OFFSET 27.459126 0.000000 0.000000
									CHANNELS 3 Zrotation Yrotation Xrotation
									End Site #name: LeftHand
									{
										OFFSET 21.306858 0.000000 0.000000
									}
								}
							}
						}
					}
					JOINT Spine2_RightShoulder
					{
						OFFSET 0.000000 0.000000 0.000000
						CHANNELS 3 Zrotation Yrotation Xrotation
						JOINT RightShoulder
						{
							OFFSET -5.580300 6.737503 -0.344400
							CHANNELS 3 Zrotation Yrotation Xrotation
							JOINT RightArm
							{
								OFFSET -10.679335 -0.188484 -2.383900
								CHANNELS 3 Zrotation Yrotation Xrotation
								JOINT RightForeArm
								{
									OFFSET -27.503529 0.000000 0.000000
									CHANNELS 3 Zrotation Yrotation Xrotation
									End Site #name: RightHand
									{
										OFFSET -21.306808 0.000000 0.000000
									}
								}
							}
						}
					}
				}
			}
		}
	}
	JOINT Hips_LeftUpLeg
	{
		OFFSET 0.000000 0.000000 0.000000
		CHANNELS 3 Zrotation Yrotation Xrotation
		JOINT LeftUpLeg
		{
			OFFSET 6.857700 -6.739601 0.312100
			CHANNELS 3 Zrotation Yrotation Xrotation
			JOINT LeftLeg
			{
				OFFSET -0.367590 -34.731552 -4.572400
				CHANNELS 3 Zrotation Yrotation Xrotation
				End Site #name: LeftFoot
				{
					OFFSET 0.367590 -34.656704 -6.067400
				}
			}
		}
	}
	JOINT Hips_RightUpLeg
	{
		OFFSET 0.000000 0.000000 0.000000
		CHANNELS 3 Zrotation Yrotation Xrotation
		JOINT RightUpLeg
		{
			OFFSET -6.876100 -6.733299 0.301000
			CHANNELS 3 Zrotation Yrotation Xrotation
			JOINT RightLeg
			{
				OFFSET 0.347353 -34.795158 -4.515900
				CHANNELS 3 Zrotation Yrotation Xrotation
				End Site #name: RightFoot
				{
					OFFSET -0.347353 -34.589367 -6.070300
				}
			}
		}
	}
}
MOTION
Frames: 6
Frame Time: 0.041667
5.656755 0.873068 1.495711 -4.120796 -9.316325 -0.907756 0.000000 0.000000 -0.000000 -0.255560 0.597837 4.291861 -0.820017 1.272239 8.808553 0.000000 0.000000 0.000000 -0.879553 1.196199 8.698918 1.368801 -2.214509 2.996649 -0.818587 1.275750 8.677423 3.191701 0.930580 0.372144 -74.306749 -11.346968 26.500263 -179.066122 -86.742299 178.897762 -0.797519 1.214878 8.572703 -4.005403 -1.915967 1.036193 78.818223 -9.422551 4.578669 -175.190161 83.527602 -175.556454 -0.000000 -0.000000 -0.000000 1.370568 1.041124 -20.494733 -0.976034 0.481254 29.029874 0.000000 0.000000 -0.000000 -7.829132 0.391044 -15.921977 0.321197 -0.632679 18.224544 
5.848105 0.905093 1.534259 -4.092092 -9.433011 -0.926052 -0.000000 0.000000 -0.000000 -0.256645 0.609683 4.283476 -0.801327 1.260714 8.746447 0.000000 0.000000 0.000000 -0.860041 1.186031 8.606796 1.117838 -2.491892 3.059453 -0.798910 1.277875 8.605418 3.151097 0.892967 0.376085 -74.336878 -10.969919 26.364902 -179.494659 -86.779441 179.318742 -0.780283 1.203378 8.505515 -3.963865 -1.877180 1.021439 78.938982 -9.519454 4.341415 -175.127474 83.465212 -175.499514 -0.000000 -0.000000 -0.000000 1.196473 1.047147 -20.263997 -0.946651 0.486157 28.628343 0.000000 0.000000 -0.000000 -7.946772 0.604037 -15.884414 0.297231 -0.634615 18.051848 
6.026175 0.932388 1.567155 -4.066124 -9.525632 -0.952048 -0.000000 0.000000 -0.000000 -0.257757 0.624012 4.281784 -0.783674 1.251999 8.690702 0.000000 0.000000 0.000000 -0.838397 1.181860 8.528437 0.989126 -2.716054 3.088684 -0.780499 1.283999 8.543284 3.131819 0.875146 0.382958 -74.389670 -10.585373 26.201398 -179.904446 -86.809031 179.720373 -0.765348 1.194966 8.446493 -3.928325 -1.841154 1.013926 79.036003 -9.627048 4.139338 -175.073657 83.404183 -175.451540 -0.000000 -0.000000 -0.000000 1.050004 1.053127 -20.020614 -0.927045 0.481208 28.266255 0.000000 0.000000 -0.000000 -8.031035 0.798305 -15.848579 0.252992 -0.645100 17.947505 
6.189679 0.954745 1.592770 -4.042717 -9.644067 -0.977009 -0.000000 0.000000 -0.000000 -0.259734 0.637404 4.281167 -0.764558 1.245084 8.632728 0.000000 0.000000 0.000000 -0.817953 1.179675 8.445611 0.891514 -2.891429 3.137420 -0.762728 1.292706 8.486292 3.121554 0.872040 0.391938 -74.444245 -10.223525 26.019728 179.681881 -86.832269 -179.874687 -0.750830 1.189208 8.394129 -3.893587 -1.800790 1.010700 79.109776 -9.727928 3.966595 -175.018964 83.358558 -175.400376 -0.000000 -0.000000 -0.000000 0.926286 1.070890 -19.765550 -0.915237 0.471284 27.911840 0.000000 0.000000 -0.000000 -8.096220 0.965751 -15.780959 0.206813 -0.663509 17.857301 
6.335953 0.971657 1.609203 -4.020662 -9.858368 -0.982881 -0.000000 0.000000 -0.000000 -0.264082 0.651809 4.262901 -0.745985 1.241804 8.577198 0.000000 0.000000 0.000000 -0.797444 1.182944 8.374681 0.843023 -2.981115 3.179527 -0.745730 1.299208 8.437485 3.114726 0.877453 0.401776 -74.506394 -9.907700 25.824933 179.250225 -86.865132 -179.453150 -0.738861 1.187445 8.351063 -3.871347 -1.773020 1.010559 79.164469 -9.806720 3.853635 -174.944165 83.330333 -175.331252 -0.000000 -0.000000 -0.000000 0.808066 1.086518 -19.533308 -0.906673 0.458486 27.608432 0.000000 0.000000 -0.000000 -8.179348 1.081357 -15.701738 0.176172 -0.699443 17.758945 
6.459166 0.982374 1.614772 -3.992368 -10.062111 -0.979329 -0.000000 0.000000 -0.000000 -0.269560 0.668540 4.217498 -0.727503 1.242643 8.525994 0.000000 0.000000 0.000000 -0.779003 1.191034 8.316248 0.825639 -3.012588 3.209566 -0.731823 1.303489 8.399230 3.117724 0.894957 0.411697 -74.583877 -9.632280 25.616350 178.730655 -86.903898 -178.948206 -0.727510 1.190030 8.316833 -3.835285 -1.747396 1.009846 79.168639 -9.877786 3.769081 -174.883953 83.283303 -175.276188 -0.000000 -0.000000 -0.000000 0.690498 1.106745 -19.345985 -0.901724 0.445500 27.402274 0.000000 0.000000 -0.000000 -8.274795 1.160565 -15.613176 0.194237 -0.735172 17.699125 
